<svg width="24" height="24" viewBox="0 0 24 24" fill="none" xmlns="http://www.w3.org/2000/svg">
  <!-- Vapor/Fumaça em estilo ondulado ~ (Vermelho) -->
  <!-- Onda 1 (Esquerda) -->
  <path d="M6 6C5 4.5 7 3.5 6 2" stroke="#ff3b30" stroke-width="1.8" stroke-linecap="round"/>
  
  <!-- Onda 2 (Centro) -->
  <path d="M10 6C9 4.5 11 3.5 10 2" stroke="#ff3b30" stroke-width="1.8" stroke-linecap="round"/>
  
  <!-- Onda 3 (Direita) -->
  <path d="M14 6C13 4.5 15 3.5 14 2" stroke="#ff3b30" stroke-width="1.8" stroke-linecap="round"/>

  <!-- Asa da Xícara (Roxo - Apenas Contorno) -->
  <path d="M18 10H20C21.1046 10 22 10.8954 22 12C22 13.1046 21.1046 14 20 14H18" stroke="#9A2CF9" stroke-width="1.8" stroke-linecap="round" stroke-linejoin="round"/>

  <!-- Corpo da Xícara (Roxo - Preenchido) -->
  <path d="M2 8H18V12C18 15.3137 15.3137 18 12 18H8C4.68629 18 2 15.3137 2 12V8Z" fill="#9A2CF9" stroke="#9A2CF9" stroke-width="1.8" stroke-linecap="round" stroke-linejoin="round"/>

  <!-- Pires / Base (Azul) -->
  <path d="M2 21H18" stroke="#0078FB" stroke-width="2.5" stroke-linecap="round"/>
</svg>
